<?xml version="1.0" standalone="no"?>
<!DOCTYPE svg PUBLIC "-//W3C//DTD SVG 20010904//EN"
 "http://www.w3.org/TR/2001/REC-SVG-20010904/DTD/svg10.dtd">
<svg version="1.0" xmlns="http://www.w3.org/2000/svg"
 width="500.000000pt" height="500.000000pt" viewBox="0 0 500.000000 500.000000"
 preserveAspectRatio="xMidYMid meet">
<metadata>
Created by potrace 1.14, written by Peter Selinger 2001-2017
</metadata>
<g transform="translate(0.000000,500.000000) scale(0.100000,-0.100000)"
fill="#000000" stroke="none">
<path d="M2423 4850 c-92 -33 -208 -125 -295 -235 -118 -150 -184 -334 -187
-523 -1 -36 -5 -44 -27 -53 -48 -18 -167 -103 -225 -161 -71 -71 -128 -154
-180 -262 -32 -67 -41 -97 -45 -162 -4 -49 -2 -96 6 -124 17 -64 72 -134 144
-183 63 -43 73 -49 160 -93 28 -15 62 -33 76 -41 14 -8 45 -24 70 -35 25 -11
47 -25 48 -29 2 -5 8 -9 14 -9 13 0 191 -106 221 -131 l22 -19 -30 11 c-188
69 -417 139 -600 185 -38 10 -74 19 -80 21 -91 24 -254 44 -335 41 -152 -6
-235 -59 -300 -191 -74 -150 -72 -473 5 -712 14 -44 25 -83 25 -87 0 -20 97
-211 144 -282 125 -191 279 -297 434 -297 63 -1 209 63 357 156 17 10 55 34
85 53 30 19 67 43 83 54 15 10 51 21 82 24 129 11 325 67 372 106 10 8 13 5
14 -13 1 -13 2 -35 3 -48 1 -18 -11 -33 -44 -57 -25 -18 -48 -33 -53 -33 -4
-1 -30 -17 -57 -36 -27 -19 -53 -35 -56 -35 -4 0 -21 -10 -38 -23 -33 -25
-185 -120 -237 -149 -17 -9 -33 -19 -36 -21 -3 -3 34 -17 81 -31 47 -14 125
-38 174 -52 48 -15 96 -28 107 -30 11 -1 64 -16 119 -33 54 -17 104 -31 110
-31 6 0 17 -4 25 -9 12 -8 11 -16 -11 -48 -14 -21 -54 -85 -90 -143 -215 -347
-263 -425 -267 -435 -2 -5 -12 -22 -22 -36 l-18 -26 102 -63 c56 -34 125 -77
154 -96 l52 -34 24 33 c14 17 32 47 42 66 9 19 21 39 26 45 14 16 139 217 139
222 0 3 17 31 38 62 20 32 42 66 49 77 26 43 93 151 102 164 11 16 -2 28 156
-144 99 -109 142 -155 184 -200 16 -16 47 -52 70 -78 22 -27 41 -47 42 -45 5
22 9 56 14 123 3 44 8 100 10 125 2 25 7 79 10 120 3 41 8 97 11 124 2 27 6
90 9 140 4 82 8 140 20 276 2 25 6 74 9 110 9 106 19 223 22 255 1 17 6 89 9
160 4 72 9 138 11 148 1 9 6 63 10 120 3 56 8 105 11 110 12 19 -25 0 -148
-78 -155 -97 -235 -145 -247 -145 -11 0 -82 110 -82 128 0 8 9 45 20 82 15 51
27 72 48 85 72 46 114 125 118 224 3 68 6 77 36 108 18 19 62 49 98 66 58 29
74 32 155 32 84 0 97 -3 153 -32 63 -33 82 -39 82 -25 0 13 -63 50 -115 68
-128 44 -282 12 -377 -77 -55 -52 -71 -60 -62 -31 49 146 172 242 329 256 21
2 96 -10 128 -20 11 -3 17 0 17 9 0 20 -66 37 -141 37 -122 -1 -249 -75 -318
-184 -17 -27 -33 -64 -37 -82 -4 -24 -14 -35 -42 -47 -21 -9 -47 -24 -59 -33
-22 -16 -23 -15 -22 2 0 11 6 37 13 59 10 34 9 49 -7 105 -11 36 -23 69 -27
73 -4 4 -35 -8 -70 -28 -127 -72 -294 -135 -358 -135 -60 0 -185 31 -246 62
-196 98 -332 292 -383 548 -15 79 -19 127 -17 216 4 226 67 398 204 560 33 39
147 132 202 165 23 15 77 42 118 60 71 32 80 34 185 33 85 -1 125 -7 175 -24
100 -34 168 -70 208 -111 20 -21 37 -37 39 -36 6 7 -42 139 -74 202 -92 181
-238 328 -359 363 -59 17 -151 14 -211 -8z m620 -2683 c18 -18 18 -19 0 -33
-32 -25 -73 -45 -82 -40 -20 13 -20 56 0 102 l22 48 21 -30 c11 -16 29 -37 39
-47z m-126 -93 c7 -18 -17 -38 -30 -25 -9 9 1 41 14 41 5 0 12 -7 16 -16z"/>
<path d="M2420 4342 c-203 -57 -322 -218 -356 -482 -23 -171 11 -403 81 -555
60 -133 130 -219 234 -288 150 -101 356 -121 513 -50 l58 26 0 278 c0 154 -3
278 -7 277 -8 -2 -201 21 -238 28 -11 3 -67 9 -125 15 -58 6 -114 12 -125 14
-11 2 -28 4 -38 4 -10 1 -15 6 -12 11 4 6 130 10 346 10 l340 0 -2 -316 c0
-173 2 -318 5 -321 3 -4 6 3 6 14 0 11 11 65 24 119 14 54 27 116 30 137 4 22
13 69 21 105 8 37 16 78 19 92 2 14 7 41 10 60 12 67 17 116 23 236 l6 120
-104 38 c-57 21 -114 38 -125 38 -20 0 -22 5 -21 67 1 36 -4 84 -11 106 -25
86 -130 178 -239 211 -79 25 -236 27 -313 6z"/>
</g>
</svg>
